<mxfile host="app.diagrams.net" modified="2023-11-03T11:41:24.849Z" agent="Mozilla/5.0 (Windows NT 10.0; Win64; x64) AppleWebKit/537.36 (KHTML, like Gecko) Chrome/119.0.0.0 Safari/537.36" version="22.0.8" etag="PIGl7osl260dyYD84PxV" type="github">
  <diagram name="PÃ¡gina-1" id="ficQsA84o5HRxyqLuwOO">
    <mxGraphModel>
      <root>
        <mxCell id="0" />
        <mxCell id="1" parent="0" />
      </root>
    </mxGraphModel>
  </diagram>
</mxfile>
